<?xml version="1.0" standalone="no"?>
<!DOCTYPE svg PUBLIC "-//W3C//DTD SVG 20010904//EN"
 "http://www.w3.org/TR/2001/REC-SVG-20010904/DTD/svg10.dtd">
<svg version="1.0" xmlns="http://www.w3.org/2000/svg"
 width="400.000000pt" height="400.000000pt" viewBox="0 0 400.000000 400.000000"
 preserveAspectRatio="xMidYMid meet">
<metadata>
Created by potrace 1.11, written by Peter Selinger 2001-2013
</metadata>
<g transform="translate(0.000000,400.000000) scale(0.100000,-0.100000)"
fill="#000000" stroke="none">
<path d="M1795 3659 c-11 -4 -34 -8 -52 -8 -17 -1 -93 -17 -169 -36 -75 -19
-142 -31 -148 -28 -6 3 -8 3 -4 -2 4 -4 -37 -27 -91 -50 -54 -23 -120 -54
-146 -68 -26 -15 -52 -24 -58 -20 -6 4 -7 1 -2 -7 6 -10 4 -12 -9 -7 -9 4 -15
3 -12 -2 6 -9 -32 -38 -56 -43 -7 -2 -19 -11 -27 -21 -7 -10 -20 -16 -28 -13
-8 3 -11 2 -8 -3 7 -12 -35 -42 -48 -34 -6 3 -7 1 -3 -5 7 -11 -32 -38 -47
-34 -5 1 -5 -2 -2 -8 4 -7 -2 -14 -14 -17 -11 -3 -23 -14 -26 -24 -4 -10 -10
-19 -14 -19 -11 0 -50 -38 -94 -93 -21 -26 -43 -44 -49 -41 -7 5 -8 2 -4 -5 9
-14 -22 -53 -35 -45 -5 3 -6 -1 -3 -9 3 -8 -3 -21 -14 -28 -11 -8 -21 -18 -23
-24 -2 -5 -8 -9 -12 -7 -5 1 -5 -3 -1 -9 4 -7 0 -17 -8 -23 -8 -6 -16 -14 -16
-19 -2 -12 -34 -72 -41 -77 -4 -3 -13 -20 -20 -37 -8 -18 -18 -33 -23 -33 -5
0 -6 -4 -3 -10 3 -5 1 -10 -5 -10 -6 0 -9 -4 -5 -9 3 -5 0 -15 -7 -23 -7 -7
-13 -19 -14 -25 -2 -30 -5 -34 -14 -28 -6 4 -7 -1 -3 -11 4 -12 3 -15 -5 -10
-8 5 -10 2 -6 -8 3 -8 2 -21 -2 -28 -5 -7 -9 -16 -10 -20 -1 -5 -3 -10 -4 -13
-1 -3 -4 -9 -5 -15 -1 -5 -4 -12 -5 -15 -1 -3 -4 -9 -5 -15 -1 -5 -3 -11 -5
-12 -3 -4 -9 -30 -16 -68 -3 -19 -9 -36 -14 -38 -4 -2 -5 -12 -2 -24 3 -12 1
-19 -5 -15 -5 4 -8 -6 -5 -24 2 -16 0 -29 -4 -29 -5 0 -9 -15 -10 -32 -3 -103
-5 -119 -12 -114 -5 3 -7 -20 -5 -50 2 -43 0 -54 -9 -48 -9 6 -9 3 1 -9 11
-14 11 -20 0 -34 -8 -9 -9 -14 -3 -10 8 5 11 -16 10 -71 -1 -42 3 -85 9 -95 7
-13 6 -20 -5 -27 -10 -6 -11 -10 -2 -10 6 0 12 -7 12 -15 0 -8 -6 -15 -12 -15
-10 0 -9 -3 1 -9 7 -5 15 -19 16 -32 2 -13 6 -37 10 -53 6 -23 5 -27 -6 -21
-8 5 -6 -1 5 -13 10 -12 16 -28 13 -36 -3 -8 -1 -17 6 -20 9 -5 9 -7 0 -12
-10 -4 -9 -9 2 -21 8 -8 13 -18 10 -23 -3 -5 -1 -11 5 -15 5 -3 10 -11 10 -16
0 -6 -4 -8 -9 -4 -5 3 -13 1 -16 -5 -4 -6 -3 -10 2 -9 19 3 33 -2 33 -12 0 -5
-6 -7 -12 -3 -7 4 -5 -2 6 -14 10 -12 16 -28 12 -37 -3 -9 -2 -14 3 -11 11 7
23 -22 15 -35 -3 -5 0 -9 6 -9 7 0 9 -7 6 -16 -3 -8 -2 -13 3 -10 5 3 14 -8
20 -26 14 -39 14 -41 -1 -32 -7 4 -1 -4 14 -19 15 -14 30 -37 34 -51 3 -14 10
-26 14 -26 4 0 11 -7 14 -16 5 -12 3 -14 -7 -8 -7 5 -4 1 6 -8 11 -10 15 -18
11 -18 -5 0 -1 -5 9 -11 15 -9 16 -13 6 -25 -7 -8 -8 -14 -3 -13 21 4 34 -2
34 -14 0 -7 9 -23 20 -35 11 -12 20 -26 20 -31 0 -6 8 -15 18 -20 9 -6 13 -11
8 -11 -5 0 1 -9 13 -19 16 -14 18 -21 9 -24 -9 -4 -9 -6 2 -6 21 -2 63 -48 55
-61 -4 -6 -1 -9 7 -8 7 2 12 -3 10 -10 -1 -8 1 -11 6 -8 10 6 52 -39 52 -56 0
-6 3 -9 6 -5 6 6 28 -10 81 -60 19 -18 39 -33 45 -33 7 0 7 -5 -1 -13 -8 -10
-7 -13 7 -13 9 1 17 -3 17 -9 0 -5 -3 -9 -8 -7 -4 1 -6 -4 -5 -10 2 -7 -3 -12
-10 -10 -8 1 -11 -2 -7 -9 5 -7 15 -3 30 11 20 19 26 20 44 8 12 -7 19 -18 17
-24 -3 -7 3 -10 15 -7 11 3 19 0 19 -6 0 -7 4 -9 10 -6 6 3 7 -1 4 -10 -5 -11
-2 -16 7 -15 35 5 40 1 28 -22 -12 -23 -12 -23 9 -4 20 18 21 18 47 -8 27 -27
41 -34 29 -15 -5 8 -1 8 12 0 38 -22 56 -40 49 -50 -3 -6 -1 -11 4 -11 6 0 11
7 11 16 0 8 4 13 10 9 5 -3 7 -13 4 -23 -4 -12 -3 -13 3 -4 7 9 16 10 36 3 15
-6 27 -13 27 -16 0 -4 -4 -3 -10 0 -5 3 -10 1 -10 -4 0 -14 13 -14 28 1 9 9
12 9 12 -1 0 -7 4 -10 9 -6 5 3 12 1 16 -5 4 -6 11 -7 17 -4 6 4 9 1 6 -7 -3
-8 -10 -14 -16 -14 -5 0 -13 -3 -17 -7 -10 -10 17 -4 43 10 12 7 22 9 22 3 0
-5 9 -8 20 -6 11 2 22 -1 25 -6 4 -5 11 -7 16 -4 5 3 6 -1 3 -9 -3 -9 3 -19
18 -26 22 -11 22 -10 4 4 -11 9 -18 16 -15 17 2 0 12 2 22 4 10 2 14 -1 10 -8
-4 -6 0 -8 10 -4 20 8 47 -1 47 -15 0 -6 -6 -6 -14 1 -11 9 -16 9 -22 0 -5 -8
-3 -9 6 -4 10 6 12 4 7 -9 -5 -14 -3 -15 12 -6 11 5 22 15 24 22 3 8 6 9 6 2
1 -7 14 -10 31 -8 17 2 30 -1 30 -7 0 -6 -4 -7 -10 -4 -5 3 -10 1 -10 -4 0
-13 13 -14 24 -4 13 13 30 10 47 -9 9 -10 20 -18 24 -18 5 0 0 10 -11 21 -19
22 -19 22 2 11 12 -6 24 -8 28 -5 3 3 6 2 6 -3 0 -6 6 -18 13 -29 11 -14 16
-15 22 -5 6 9 4 11 -5 5 -10 -6 -12 -4 -7 9 5 11 3 15 -5 10 -7 -4 -8 -3 -4 4
6 11 21 10 79 -1 6 -1 18 -8 25 -15 16 -15 29 -15 37 -2 3 5 0 7 -8 4 -8 -3
-18 -1 -21 4 -3 5 8 9 24 8 17 0 30 -4 30 -7 0 -11 29 -19 45 -13 8 4 12 10 9
15 -8 13 18 7 34 -8 13 -12 42 -7 42 7 0 5 8 9 18 9 49 3 127 9 127 11 0 1 9
4 20 6 11 1 32 5 47 8 23 5 27 3 22 -11 -5 -16 -4 -15 10 1 9 11 16 16 16 10
0 -5 5 -2 10 6 6 10 10 11 10 3 0 -7 5 -13 11 -13 5 0 8 4 5 9 -9 14 24 22 45
10 11 -5 16 -15 13 -21 -5 -7 -2 -8 5 -4 9 6 9 12 -3 25 -14 15 -14 18 -1 18
8 0 16 -6 19 -14 3 -7 11 -13 18 -13 8 0 9 3 3 8 -17 12 -15 30 3 28 9 -2 26
3 38 11 12 7 29 10 39 7 13 -5 16 -4 11 4 -5 8 -1 10 10 5 13 -5 15 -3 9 8 -4
8 -5 11 0 7 4 -4 15 -2 23 5 13 9 14 9 8 0 -11 -19 5 -16 21 5 8 9 12 12 9 5
-10 -20 34 -2 49 21 9 11 16 19 18 18 3 -6 60 20 79 36 12 10 18 11 24 1 5 -8
3 -10 -6 -4 -9 5 -11 4 -6 -3 12 -20 29 -13 23 9 -5 17 -2 20 15 16 11 -3 17
-3 14 0 -11 11 15 32 31 26 12 -5 14 -3 8 7 -5 8 -4 11 2 7 6 -4 14 0 17 8 3
8 9 14 13 13 5 -2 22 9 38 24 16 16 34 28 39 28 5 0 18 9 30 20 60 58 88 80
97 75 5 -4 9 0 9 7 0 7 24 36 54 65 29 29 51 55 47 59 -3 4 2 4 11 1 12 -4 15
-2 11 9 -8 21 7 17 36 -8 l26 -23 -22 26 c-27 29 -29 39 -9 39 8 0 18 4 21 10
4 6 -1 7 -12 4 -11 -4 -7 4 12 23 17 15 26 26 20 23 -6 -3 -2 3 8 13 11 9 15
17 11 17 -5 0 -1 5 9 11 9 6 14 15 11 21 -4 7 -2 8 4 4 8 -5 12 0 12 14 0 12
9 24 23 30 13 5 16 9 7 10 -12 0 -12 3 2 14 10 7 15 16 11 19 -3 4 -1 7 5 7 7
0 12 8 12 19 0 10 12 31 28 46 15 16 21 25 13 20 -9 -5 -8 1 4 18 9 14 18 32
19 39 5 21 25 71 42 101 8 15 13 27 10 27 -3 0 0 13 5 30 6 16 14 28 18 25 4
-2 7 6 6 18 -1 12 4 39 11 60 7 20 13 39 14 42 0 3 0 6 1 8 0 1 3 15 5 32 3
16 11 33 17 37 9 6 9 8 0 8 -7 0 -13 5 -13 11 0 5 4 8 9 5 5 -4 8 9 7 29 -2
19 0 35 4 35 5 0 6 10 2 22 -4 16 -2 19 9 13 11 -6 12 -5 2 6 -15 15 -17 49
-5 49 5 0 7 38 6 85 -2 64 0 84 9 78 7 -4 7 0 -2 10 -11 14 -11 20 0 34 8 9 9
14 3 10 -8 -4 -12 6 -13 31 -1 20 -4 60 -7 87 -4 28 -7 67 -8 87 0 21 -4 38
-7 38 -4 0 -12 32 -33 140 -2 8 -9 29 -15 45 -7 17 -14 40 -14 52 -1 13 -5 23
-9 23 -4 0 -5 9 -3 20 2 11 0 18 -6 15 -9 -6 -11 -1 -13 28 -1 6 -5 15 -9 18
-5 3 -9 12 -11 20 -1 8 -8 24 -14 37 -7 12 -10 28 -6 34 4 7 3 8 -4 4 -11 -6
-14 0 -11 20 0 4 -4 10 -11 14 -6 4 -12 16 -13 28 0 11 -5 20 -9 19 -5 -1 -21
21 -36 48 -15 28 -31 53 -36 56 -5 4 -5 12 -2 18 4 6 3 10 -3 9 -13 -4 -62 62
-55 74 3 5 0 7 -8 6 -7 -2 -12 5 -12 14 1 10 -2 15 -6 13 -11 -7 -86 83 -82
97 1 5 -1 7 -6 4 -12 -7 -84 68 -75 79 5 4 3 5 -3 2 -15 -9 -66 32 -58 45 4 7
2 8 -5 4 -7 -5 -20 2 -33 16 -11 12 -23 22 -27 21 -4 -1 -22 11 -39 27 -18 16
-32 26 -32 22 0 -4 -7 1 -14 11 -8 10 -17 18 -20 18 -17 -1 -35 12 -29 22 3 6
1 7 -6 3 -6 -4 -23 1 -39 12 -15 11 -37 23 -49 26 -13 4 -23 12 -23 18 0 6 -3
9 -6 6 -5 -5 -54 14 -159 62 -23 10 -182 59 -217 66 -155 31 -211 37 -388 39
-107 1 -204 -1 -215 -6z m910 -3189 c-3 -5 -12 -10 -18 -10 -7 0 -6 4 3 10 19
12 23 12 15 0z m-695 -152 c0 -4 -4 -8 -9 -8 -6 0 -12 4 -15 8 -3 5 1 9 9 9 8
0 15 -4 15 -9z m80 6 c0 -8 -19 -13 -24 -6 -3 5 1 9 9 9 8 0 15 -2 15 -3z"/>
<path d="M3610 2520 c0 -5 5 -10 11 -10 5 0 7 5 4 10 -3 6 -8 10 -11 10 -2 0
-4 -4 -4 -10z"/>
<path d="M3655 1580 c-3 -5 -1 -10 4 -10 6 0 11 5 11 10 0 6 -2 10 -4 10 -3 0
-8 -4 -11 -10z"/>
<path d="M370 1440 c0 -5 5 -10 11 -10 5 0 7 5 4 10 -3 6 -8 10 -11 10 -2 0
-4 -4 -4 -10z"/>
<path d="M435 1321 c-3 -5 -2 -12 3 -15 5 -3 9 1 9 9 0 17 -3 19 -12 6z"/>
<path d="M3559 1313 c-13 -16 -12 -17 4 -4 9 7 17 15 17 17 0 8 -8 3 -21 -13z"/>
<path d="M3530 1239 c0 -5 5 -7 10 -4 6 3 10 8 10 11 0 2 -4 4 -10 4 -5 0 -10
-5 -10 -11z"/>
<path d="M456 1227 c3 -10 9 -15 12 -12 3 3 0 11 -7 18 -10 9 -11 8 -5 -6z"/>
<path d="M3505 1200 c-3 -6 1 -7 9 -4 18 7 21 14 7 14 -6 0 -13 -4 -16 -10z"/>
<path d="M3500 1126 c0 -2 8 -10 18 -17 15 -13 16 -12 3 4 -13 16 -21 21 -21
13z"/>
<path d="M3429 1063 c-13 -16 -12 -17 4 -4 9 7 17 15 17 17 0 8 -8 3 -21 -13z"/>
<path d="M556 1038 c3 -5 10 -6 15 -3 13 9 11 12 -6 12 -8 0 -12 -4 -9 -9z"/>
<path d="M3410 1020 c0 -5 5 -10 11 -10 5 0 7 5 4 10 -3 6 -8 10 -11 10 -2 0
-4 -4 -4 -10z"/>
<path d="M3375 969 c-4 -6 -5 -12 -2 -15 2 -3 7 2 10 11 7 17 1 20 -8 4z"/>
<path d="M695 880 c3 -5 8 -10 11 -10 2 0 4 5 4 10 0 6 -5 10 -11 10 -5 0 -7
-4 -4 -10z"/>
<path d="M3275 859 c-3 -4 2 -6 10 -5 21 3 28 13 10 13 -9 0 -18 -4 -20 -8z"/>
<path d="M3240 840 c-9 -6 -10 -10 -3 -10 6 0 15 5 18 10 8 12 4 12 -15 0z"/>
<path d="M3273 825 c0 -8 4 -12 9 -9 5 3 6 10 3 15 -9 13 -12 11 -12 -6z"/>
<path d="M3205 811 c-3 -5 -2 -12 3 -15 5 -3 9 1 9 9 0 17 -3 19 -12 6z"/>
<path d="M725 799 c-3 -4 2 -6 10 -5 21 3 28 13 10 13 -9 0 -18 -4 -20 -8z"/>
<path d="M839 733 c-13 -16 -12 -17 4 -4 9 7 17 15 17 17 0 8 -8 3 -21 -13z"/>
<path d="M3125 720 c3 -5 8 -10 11 -10 2 0 4 5 4 10 0 6 -5 10 -11 10 -5 0 -7
-4 -4 -10z"/>
<path d="M856 699 c4 -7 44 0 44 7 0 2 -11 3 -24 2 -14 -1 -23 -5 -20 -9z"/>
<path d="M3053 657 c-3 -6 -1 -7 5 -3 16 10 15 -7 0 -23 -10 -11 -10 -12 -1
-7 7 4 17 15 22 25 8 13 6 18 -5 18 -8 0 -18 -5 -21 -10z"/>
<path d="M3006 642 c-3 -5 1 -9 9 -9 8 0 15 4 15 9 0 4 -4 8 -9 8 -6 0 -12 -4
-15 -8z"/>
<path d="M990 623 c7 -3 8 -9 1 -17 -8 -9 -7 -13 3 -13 17 0 14 30 -3 33 -7 2
-7 0 -1 -3z"/>
<path d="M3006 605 c-11 -8 -15 -15 -9 -15 6 0 16 7 23 15 16 19 11 19 -14 0z"/>
<path d="M1030 582 c0 -5 7 -9 15 -9 8 0 12 4 9 9 -3 4 -9 8 -15 8 -5 0 -9 -4
-9 -8z"/>
<path d="M2970 576 c0 -2 8 -10 18 -17 15 -13 16 -12 3 4 -13 16 -21 21 -21
13z"/>
<path d="M2890 560 c0 -5 5 -10 11 -10 5 0 7 5 4 10 -3 6 -8 10 -11 10 -2 0
-4 -4 -4 -10z"/>
<path d="M2926 562 c-3 -5 1 -9 9 -9 8 0 15 4 15 9 0 4 -4 8 -9 8 -6 0 -12 -4
-15 -8z"/>
<path d="M1153 512 c2 -18 6 -35 10 -38 3 -3 4 8 2 26 -3 18 -7 35 -10 38 -3
3 -4 -9 -2 -26z"/>
<path d="M2919 513 c-13 -17 -13 -17 6 -3 11 8 22 16 24 17 2 2 0 3 -6 3 -6 0
-17 -8 -24 -17z"/>
<path d="M1116 498 c3 -5 10 -6 15 -3 13 9 11 12 -6 12 -8 0 -12 -4 -9 -9z"/>
<path d="M1209 504 c5 -3 7 -17 5 -32 -3 -19 -2 -23 5 -13 12 18 7 44 -8 47
-6 1 -7 0 -2 -2z"/>
<path d="M2811 503 c3 -18 -2 -27 -9 -16 -5 9 -12 6 -21 -10 -13 -19 -12 -21
1 -10 8 7 17 11 20 8 3 -3 11 1 17 9 8 10 9 16 1 21 -6 4 -10 3 -9 -2z"/>
<path d="M2866 498 c3 -5 10 -6 15 -3 13 9 11 12 -6 12 -8 0 -12 -4 -9 -9z"/>
<path d="M2734 463 c4 -8 1 -13 -8 -13 -9 0 -16 -4 -16 -8 0 -4 8 -8 19 -8 19
0 22 19 6 33 -4 4 -5 2 -1 -4z"/>
<path d="M1243 444 c9 -11 15 -24 12 -27 -3 -4 -2 -5 2 -2 4 3 8 13 9 21 1 9
0 13 -3 10 -4 -3 -13 0 -22 6 -12 10 -12 7 2 -8z"/>
<path d="M1368 423 c-9 -2 -16 -13 -15 -23 1 -11 4 -17 7 -14 3 3 4 8 2 11 -2
3 5 11 15 19 19 14 18 14 -9 7z"/>
<path d="M2673 413 c0 -9 4 -10 14 -2 7 6 13 12 13 14 0 1 -6 2 -13 2 -8 0
-14 -6 -14 -14z"/>
<path d="M2651 404 c0 -11 3 -14 6 -6 3 7 2 16 -1 19 -3 4 -6 -2 -5 -13z"/>
<path d="M2551 402 c3 -20 -2 -25 -12 -12 -8 12 -10 12 -7 1 2 -8 12 -15 21
-17 9 -1 15 1 12 6 -3 5 0 10 7 12 8 3 6 7 -5 11 -9 3 -16 3 -16 -1z"/>
<path d="M2605 400 c3 -5 8 -10 11 -10 2 0 4 5 4 10 0 6 -5 10 -11 10 -5 0 -7
-4 -4 -10z"/>
<path d="M1428 383 c6 -2 9 -10 6 -15 -4 -7 -2 -8 4 -4 18 11 14 26 -5 25 -11
0 -13 -3 -5 -6z"/>
<path d="M1486 363 c-6 -14 -5 -15 5 -6 7 7 10 15 7 18 -3 3 -9 -2 -12 -12z"/>
<path d="M2513 360 c-1 -11 2 -22 6 -24 4 -3 7 4 6 14 -2 27 -10 33 -12 10z"/>
<path d="M2426 343 c-6 -14 -5 -15 5 -6 7 7 10 15 7 18 -3 3 -9 -2 -12 -12z"/>
<path d="M2309 334 c7 -15 7 -25 -2 -34 -10 -12 -9 -12 5 -1 9 7 23 9 30 5 8
-4 7 -1 -2 7 -8 8 -20 21 -28 29 -11 13 -12 12 -3 -6z"/>
<path d="M1553 327 c0 -8 6 -14 14 -14 9 0 10 4 2 14 -6 7 -12 13 -14 13 -1 0
-2 -6 -2 -13z"/>
<path d="M2240 325 c-7 -8 -9 -15 -6 -15 4 0 14 7 22 15 9 8 11 15 6 15 -5 0
-15 -7 -22 -15z"/>
<path d="M2280 331 c0 -6 4 -13 10 -16 6 -3 7 1 4 9 -7 18 -14 21 -14 7z"/>
<path d="M2374 318 c0 -16 2 -16 18 -1 10 9 18 17 18 17 0 1 -8 2 -18 2 -10 0
-18 -8 -18 -18z"/>
<path d="M1507 319 c7 -7 15 -10 18 -7 3 3 -2 9 -12 12 -14 6 -15 5 -6 -5z"/>
<path d="M1594 318 c-4 -7 -4 -10 1 -6 4 4 15 2 24 -5 14 -11 14 -10 2 6 -16
20 -18 21 -27 5z"/>
<path d="M1700 319 c0 -5 5 -7 10 -4 6 3 10 8 10 11 0 2 -4 4 -10 4 -5 0 -10
-5 -10 -11z"/>
<path d="M1840 320 c0 -5 5 -10 11 -10 5 0 7 5 4 10 -3 6 -8 10 -11 10 -2 0
-4 -4 -4 -10z"/>
<path d="M2145 320 c-3 -5 -1 -10 4 -10 6 0 11 5 11 10 0 6 -2 10 -4 10 -3 0
-8 -4 -11 -10z"/>
<path d="M2186 317 c3 -10 9 -15 12 -12 3 3 0 11 -7 18 -10 9 -11 8 -5 -6z"/>
<path d="M1654 308 c-4 -7 -3 -8 5 -4 6 4 20 2 29 -6 15 -12 16 -11 3 5 -16
20 -27 22 -37 5z"/>
<path d="M1733 303 c4 -3 1 -13 -6 -22 -11 -14 -10 -14 5 -2 16 12 16 31 1 31
-4 0 -3 -3 0 -7z"/>
<path d="M1779 308 c-5 -18 -6 -39 -2 -34 4 3 13 0 22 -6 12 -10 12 -7 -2 8
-9 11 -14 24 -10 27 3 4 3 7 0 7 -4 0 -7 -1 -8 -2z"/>
<path d="M1870 300 c0 -5 5 -10 10 -10 6 0 10 5 10 10 0 6 -4 10 -10 10 -5 0
-10 -4 -10 -10z"/>
<path d="M2110 300 c0 -5 5 -10 10 -10 6 0 10 5 10 10 0 6 -4 10 -10 10 -5 0
-10 -4 -10 -10z"/>
<path d="M2256 301 c-3 -5 2 -15 12 -22 15 -12 16 -12 5 2 -7 9 -10 19 -6 22
3 4 4 7 0 7 -3 0 -8 -4 -11 -9z"/>
<path d="M2450 300 c0 -5 5 -10 11 -10 5 0 7 5 4 10 -3 6 -8 10 -11 10 -2 0
-4 -4 -4 -10z"/>
<path d="M1950 289 c0 -5 5 -7 10 -4 6 3 10 8 10 11 0 2 -4 4 -10 4 -5 0 -10
-5 -10 -11z"/>
<path d="M2030 289 c0 -5 5 -7 10 -4 6 3 10 8 10 11 0 2 -4 4 -10 4 -5 0 -10
-5 -10 -11z"/>
<path d="M1826 282 c-3 -5 1 -9 9 -9 8 0 12 4 9 9 -3 4 -7 8 -9 8 -2 0 -6 -4
-9 -8z"/>
<path d="M1900 286 c0 -2 9 -6 20 -9 11 -3 18 -1 14 4 -5 9 -34 13 -34 5z"/>
<path d="M2133 277 c-3 -5 -1 -7 5 -3 5 3 13 0 15 -6 4 -9 6 -10 6 -1 1 7 11
10 28 7 15 -3 24 -2 21 2 -12 11 -68 12 -75 1z"/>
<path d="M1695 260 c-3 -5 -1 -10 4 -10 6 0 11 5 11 10 0 6 -2 10 -4 10 -3 0
-8 -4 -11 -10z"/>
<path d="M1870 241 c0 -6 4 -13 10 -16 6 -3 7 1 4 9 -7 18 -14 21 -14 7z"/>
<path d="M1947 199 c7 -7 15 -10 18 -7 3 3 -2 9 -12 12 -14 6 -15 5 -6 -5z"/>
</g>
</svg>
