<?xml version="1.0" standalone="no"?>
<!DOCTYPE svg PUBLIC "-//W3C//DTD SVG 20010904//EN"
 "http://www.w3.org/TR/2001/REC-SVG-20010904/DTD/svg10.dtd">
<svg version="1.0" xmlns="http://www.w3.org/2000/svg"
 width="242.000000pt" height="242.000000pt" viewBox="0 0 242.000000 242.000000"
 preserveAspectRatio="xMidYMid meet">
<metadata>
Created by potrace 1.11, written by Peter Selinger 2001-2013
</metadata>
<g transform="translate(0.000000,242.000000) scale(0.100000,-0.100000)"
fill="#000000" stroke="none">
<path d="M0 1210 l0 -1210 1210 0 1210 0 0 1210 0 1210 -1210 0 -1210 0 0
-1210z m970 743 l0 -218 -37 -20 c-73 -40 -78 -54 -81 -261 -2 -101 -7 -182
-11 -179 -4 2 -56 7 -114 10 l-107 7 0 -184 c0 -101 -3 -213 -6 -250 -7 -65
-7 -66 -30 -56 -17 8 -27 8 -38 -1 -11 -9 -23 -6 -59 17 -34 21 -54 27 -78 24
l-32 -5 25 -15 c14 -8 30 -24 37 -34 9 -15 1 -12 -33 11 -24 17 -53 31 -63 30
-10 0 -13 -3 -5 -6 6 -2 12 -9 12 -14 0 -5 -16 -1 -35 8 l-35 17 0 668 0 668
345 0 345 0 0 -217z m1153 75 c-81 -106 -115 -144 -133 -146 -14 -2 -29 -8
-34 -13 -15 -14 -86 -10 -131 7 -69 27 -186 56 -200 50 -21 -8 1 -65 31 -78
34 -16 20 -28 -19 -17 -124 38 -208 56 -213 48 -3 -5 -10 -7 -15 -4 -5 4 -19
-1 -31 -9 -12 -9 -19 -16 -14 -16 5 0 1 -12 -9 -26 -9 -14 -14 -29 -10 -32 6
-6 -127 -43 -133 -37 -1 1 62 95 140 208 l143 206 368 1 368 0 -108 -142z
m-348 -162 c6 -2 -6 -8 -25 -13 -19 -5 -37 -6 -40 -2 -3 4 -18 12 -33 18 -50
19 -28 29 31 15 31 -8 62 -16 67 -18z m-282 -26 c26 -7 47 -16 47 -19 0 -10
-90 -26 -128 -23 l-32 3 17 30 c10 17 24 27 33 25 8 -2 36 -9 63 -16z m455
-37 c-8 -10 -84 -107 -168 -216 -134 -174 -151 -201 -142 -220 5 -12 132 -242
282 -512 l273 -490 -2 -74 c-1 -57 -6 -78 -19 -87 -13 -10 -92 -13 -339 -14
l-323 0 -85 170 -85 170 0 104 0 105 62 37 c37 23 63 33 65 27 12 -34 69 -96
100 -110 l36 -15 115 79 c113 77 134 100 124 135 -6 25 -13 23 -44 -14 l-27
-33 -27 26 -26 26 33 26 c19 13 44 28 57 32 24 7 29 24 10 43 -23 23 -53 12
-149 -54 -96 -65 -96 -66 -138 -54 -23 6 -39 15 -36 21 9 13 136 113 163 128
19 10 21 15 11 27 -21 25 -63 16 -119 -26 -29 -22 -61 -40 -69 -40 -9 0 -36
-11 -60 -25 -45 -26 -61 -30 -61 -17 0 11 89 62 121 69 36 7 37 16 4 31 -37
17 -53 15 -99 -12 l-41 -24 3 272 c4 296 0 327 -48 374 l-29 30 52 6 c28 4 57
12 65 18 20 17 81 14 103 -5 10 -9 19 -14 19 -11 0 4 7 1 15 -6 10 -9 15 -9
15 -1 0 6 5 11 11 11 5 0 7 -5 4 -10 -4 -6 -1 -9 7 -8 8 2 12 -5 11 -19 -2
-13 2 -23 8 -23 6 0 9 -9 6 -20 -3 -11 -1 -18 4 -14 12 7 12 44 -1 44 -5 0 -7
6 -4 14 3 7 -2 20 -10 29 -19 18 -20 33 -4 43 7 5 8 3 3 -7 -6 -9 -2 -9 11 2
29 25 154 45 194 30 55 -19 98 -14 111 12 15 27 28 37 53 37 17 0 18 -2 4 -17z
m-80 -11 c-6 -7 -17 -11 -24 -8 -7 3 -14 2 -16 -3 -2 -4 -22 0 -44 9 l-42 15
68 0 c55 0 66 -3 58 -13z m-328 -52 c0 -5 -5 -10 -11 -10 -5 0 -7 5 -4 10 3 6
8 10 11 10 2 0 4 -4 4 -10z m-575 -114 c-6 -36 -11 -46 -26 -46 -26 0 -25 40
2 74 12 15 23 25 26 22 2 -2 1 -25 -2 -50z m321 -55 c6 -30 5 -33 -10 -28 -10
4 -22 7 -27 7 -10 0 -12 40 -3 65 10 24 32 0 40 -44z m-314 -96 l3 -50 28 41
c25 37 32 42 62 39 41 -4 55 -12 55 -30 0 -7 5 -15 12 -17 6 -2 11 -22 11 -44
0 -21 2 -31 4 -21 2 9 9 17 14 17 5 0 8 3 6 8 -1 4 3 9 8 12 6 3 12 -21 15
-60 l4 -65 6 70 c5 56 7 42 7 -65 l1 -135 -26 83 c-15 45 -30 82 -35 82 -4 0
-4 -25 -1 -55 4 -32 3 -55 -2 -54 -5 1 -19 1 -31 0 -21 -1 -21 -2 8 -56 23
-43 29 -68 29 -114 0 -59 0 -59 -33 -65 -18 -3 -67 -26 -108 -51 -41 -25 -80
-45 -86 -45 -10 0 -13 60 -13 268 0 147 3 285 7 307 l7 40 7 -30 7 -30 1 36
c2 72 28 60 33 -16z m278 -76 c0 -5 4 -8 9 -4 21 12 32 -34 22 -91 -6 -30 -13
-60 -17 -66 -4 -6 1 -8 12 -6 13 2 21 15 26 38 6 31 0 -52 -8 -120 -6 -49 -6
-95 0 -125 4 -24 1 -33 -17 -44 -12 -8 -32 -20 -44 -28 -20 -13 -21 -13 -16 5
2 11 0 23 -6 26 -6 4 -12 37 -13 74 l-2 67 -3 -62 c-3 -47 -8 -63 -18 -63 -12
0 -15 15 -15 64 0 60 2 64 25 68 13 3 24 2 23 -1 0 -3 0 -37 1 -75 2 -107 16
-67 17 47 2 259 4 307 14 307 6 0 10 -5 10 -11z m-373 -86 c-2 -16 -4 -5 -4
22 0 28 2 40 4 28 2 -13 2 -35 0 -50z m0 -125 c-2 -18 -4 -4 -4 32 0 36 2 50
4 33 2 -18 2 -48 0 -65z m312 0 c10 -30 9 -31 -4 -14 -8 11 -15 26 -15 33 0
22 8 14 19 -19z m-441 2 c42 0 83 -4 90 -8 9 -6 13 -49 15 -155 l3 -146 -28
-6 c-15 -4 -28 -13 -28 -20 0 -23 -20 -28 -46 -10 -14 9 -28 14 -31 12 -2 -3
9 -13 26 -23 17 -10 31 -25 31 -33 0 -12 -3 -12 -17 1 -17 14 -81 48 -91 48
-3 0 7 -9 22 -21 27 -21 35 -49 14 -49 -6 0 -26 11 -45 26 -32 25 -33 26 -33
103 0 43 3 126 7 185 5 87 9 106 20 101 8 -3 49 -5 91 -5z m612 -264 c0 -3 -4
-8 -10 -11 -5 -3 -10 -1 -10 4 0 6 5 11 10 11 6 0 10 -2 10 -4z m307 -88 c-3
-8 -6 -5 -6 6 -1 11 2 17 5 13 3 -3 4 -12 1 -19z m-457 -8 c0 -5 26 -11 58
-13 l57 -3 -56 -2 c-40 -1 -60 2 -69 13 -9 10 -9 15 -1 15 6 0 11 -4 11 -10z
m-870 -62 c0 -4 -6 -8 -12 -8 -21 1 -48 26 -48 44 0 14 4 14 30 -6 17 -12 30
-25 30 -30z m310 32 c0 -5 -4 -10 -10 -10 -5 0 -10 5 -10 10 0 6 5 10 10 10 6
0 10 -4 10 -10z m203 -25 c-7 -21 -12 -19 -10 4 0 11 5 18 9 15 4 -3 5 -11 1
-19z m-178 5 c3 -5 1 -10 -4 -10 -6 0 -11 5 -11 10 0 6 2 10 4 10 3 0 8 -4 11
-10z m139 -41 c18 15 34 -5 28 -35 -4 -23 -7 -24 -98 -24 -86 0 -94 2 -105 22
-9 17 -9 23 1 26 10 4 9 6 -1 13 -7 4 -11 11 -7 14 3 4 18 -1 33 -11 25 -17
27 -16 48 4 l21 22 34 -21 c24 -13 38 -17 46 -10z m-514 0 c0 -5 -4 -9 -10 -9
-5 0 -10 7 -10 16 0 8 5 12 10 9 6 -3 10 -10 10 -16z m150 -29 l20 25 6 -22
c3 -13 11 -20 17 -16 5 3 7 1 4 -4 -4 -6 0 -28 9 -49 11 -26 12 -40 5 -42 -7
-2 -5 -12 5 -28 15 -22 15 -24 0 -24 -9 0 -16 -7 -16 -16 0 -11 6 -14 20 -9
15 5 20 2 20 -12 0 -10 16 -60 35 -111 20 -51 32 -98 29 -104 -4 -6 0 -14 7
-19 11 -7 10 -9 -4 -9 -11 0 -30 -9 -43 -19 -19 -15 -21 -20 -9 -25 8 -3 15 0
16 7 0 9 2 9 6 -1 2 -6 8 -10 13 -7 4 3 6 -5 2 -17 -5 -21 -6 -21 -13 -2 -6
18 -7 18 -14 2 -6 -16 -23 -18 -146 -18 l-139 0 0 260 0 260 21 -12 c18 -11
23 -10 37 8 l17 22 38 -22 38 -21 19 25z m113 13 c-7 -2 -21 -2 -30 0 -10 3
-4 5 12 5 17 0 24 -2 18 -5z m48 -24 c-2 -8 -3 -31 -3 -52 -1 -44 -10 -51 -53
-38 -16 5 -22 10 -13 10 15 1 15 5 6 32 -7 21 -15 28 -26 24 -12 -4 -13 -3 -2
10 7 8 21 15 31 15 10 0 21 5 24 11 10 15 41 5 36 -12z m348 -5 c19 12 12 -10
-36 -119 -39 -88 -50 -105 -69 -105 -22 0 -21 3 22 95 25 53 42 101 38 107 -4
7 -3 8 4 4 8 -5 12 1 12 16 0 17 3 19 9 9 5 -7 14 -10 20 -7z m329 -10 c-2
-23 -4 -24 -15 -8 -10 14 -10 19 0 26 17 11 17 11 15 -18z m-537 -14 l89 0 0
-64 c0 -85 -12 -114 -55 -131 -44 -19 -42 -20 -50 13 -13 53 -48 122 -61 122
-7 0 -20 13 -29 30 -19 37 -19 44 1 36 9 -3 56 -6 105 -6z m219 -100 c0 -5 -6
-10 -12 -11 -10 0 -10 -2 0 -6 7 -2 12 -22 12 -44 0 -39 0 -39 -39 -37 -30 1
-36 4 -27 14 6 6 15 9 20 6 5 -3 7 2 3 11 -3 10 -2 17 3 17 6 0 9 3 8 8 -4 13
13 52 23 52 5 0 9 -4 9 -10z m-382 -55 c-3 -3 -9 2 -12 12 -6 14 -5 15 5 6 7
-7 10 -15 7 -18z m112 -30 c0 -5 -5 -3 -10 5 -5 8 -10 20 -10 25 0 6 5 3 10
-5 5 -8 10 -19 10 -25z m-92 -16 c-3 -8 -7 -3 -11 10 -4 17 -3 21 5 13 5 -5 8
-16 6 -23z m157 -29 c-3 -5 -11 -10 -16 -10 -6 0 -7 5 -4 10 3 6 11 10 16 10
6 0 7 -4 4 -10z m152 -126 c-3 -3 -12 -4 -19 -1 -8 3 -5 6 6 6 11 1 17 -2 13
-5z m-40 -72 c-19 -20 -23 -37 -7 -27 6 3 7 -1 4 -9 -7 -18 -24 -11 -24 10 0
14 32 53 39 47 2 -1 -3 -11 -12 -21z"/>
<path d="M1449 1935 c-3 -2 -20 -6 -38 -7 -29 -2 -54 -16 -34 -19 62 -11 140
0 122 15 -9 8 -46 16 -50 11z"/>
<path d="M1635 1700 c-4 -6 -11 -8 -16 -5 -5 4 -6 -2 -2 -11 4 -11 8 -13 11
-6 2 7 10 12 18 12 8 0 14 5 14 10 0 13 -17 13 -25 0z"/>
<path d="M1545 1670 c3 -5 8 -10 11 -10 2 0 4 5 4 10 0 6 -5 10 -11 10 -5 0
-7 -4 -4 -10z"/>
<path d="M1540 1619 c-11 -8 -12 -12 -2 -16 6 -2 10 -9 6 -14 -3 -5 0 -9 5 -9
6 0 11 4 11 9 0 5 3 16 6 25 7 18 -4 20 -26 5z"/>
<path d="M1063 1440 c0 -30 2 -43 4 -27 2 15 2 39 0 55 -2 15 -4 2 -4 -28z"/>
<path d="M1160 1381 c0 -11 -6 -22 -12 -24 -8 -3 -6 -6 5 -6 12 -1 17 7 17 24
0 14 -2 25 -5 25 -3 0 -5 -9 -5 -19z"/>
<path d="M932 1320 c0 -14 2 -19 5 -12 2 6 2 18 0 25 -3 6 -5 1 -5 -13z"/>
<path d="M1192 1275 c0 -16 2 -22 5 -12 2 9 2 23 0 30 -3 6 -5 -1 -5 -18z"/>
<path d="M926 1205 c-3 -8 -1 -15 4 -15 6 0 10 7 10 15 0 8 -2 15 -4 15 -2 0
-6 -7 -10 -15z"/>
<path d="M920 1155 c0 -14 4 -25 8 -25 4 0 9 11 10 25 1 14 -3 25 -8 25 -6 0
-10 -11 -10 -25z"/>
<path d="M920 1060 c0 -33 4 -60 10 -60 6 0 10 27 10 60 0 33 -4 60 -10 60 -6
0 -10 -27 -10 -60z"/>
<path d="M920 959 c0 -5 5 -7 10 -4 6 3 10 8 10 11 0 2 -4 4 -10 4 -5 0 -10
-5 -10 -11z"/>
<path d="M580 705 c0 -5 5 -17 10 -25 5 -8 10 -10 10 -5 0 6 -5 17 -10 25 -5
8 -10 11 -10 5z"/>
</g>
</svg>
