<?xml version="1.0" standalone="no"?>
<!DOCTYPE svg PUBLIC "-//W3C//DTD SVG 20010904//EN"
 "http://www.w3.org/TR/2001/REC-SVG-20010904/DTD/svg10.dtd">
<svg version="1.0" xmlns="http://www.w3.org/2000/svg"
 width="471.000000pt" height="471.000000pt" viewBox="0 0 471.000000 471.000000"
 preserveAspectRatio="xMidYMid meet">
<metadata>
Created by potrace 1.11, written by Peter Selinger 2001-2013
</metadata>
<g transform="translate(0.000000,471.000000) scale(0.100000,-0.100000)"
fill="#000000" stroke="none">
<path d="M2256 3953 c-1 -2 -27 -5 -57 -7 -30 -3 -72 -8 -94 -12 -22 -4 -46
-7 -52 -7 -7 0 -13 -3 -13 -7 0 -4 -10 -6 -22 -5 -13 1 -29 -2 -35 -8 -7 -5
-13 -7 -13 -4 0 11 -200 -55 -252 -83 -10 -6 -25 -10 -33 -10 -8 0 -15 -4 -15
-9 0 -5 -13 -12 -29 -16 -16 -3 -35 -13 -42 -21 -6 -8 -17 -14 -24 -14 -7 0
-18 -7 -25 -15 -7 -8 -16 -13 -20 -10 -5 3 -10 2 -12 -2 -1 -5 -35 -29 -74
-55 -39 -27 -88 -63 -109 -80 -60 -52 -213 -207 -208 -212 3 -2 -5 -9 -16 -16
-12 -6 -21 -17 -21 -25 0 -8 -8 -19 -17 -24 -10 -6 -14 -11 -10 -11 5 0 1 -7
-8 -16 -40 -40 -161 -260 -190 -344 -1 -3 -7 -18 -13 -33 -7 -16 -12 -35 -12
-43 0 -8 -4 -14 -8 -14 -5 0 -9 -6 -9 -12 0 -7 -10 -51 -21 -98 -32 -128 -40
-178 -46 -309 -3 -45 -7 -86 -11 -89 -3 -3 -168 -6 -367 -6 -358 -1 -361 -1
-364 -22 -2 -14 2 -21 14 -22 38 -4 125 -1 133 4 5 3 9 1 9 -3 0 -5 27 -6 60
-3 33 3 60 3 60 0 0 -3 47 -5 105 -5 58 0 105 3 105 6 0 3 7 6 15 6 8 0 15 -3
15 -7 0 -3 27 -3 60 0 33 3 60 3 60 0 0 -3 27 -3 60 0 33 3 60 3 60 0 0 -3 47
-5 105 -5 58 0 105 3 105 6 0 3 7 6 15 6 8 0 15 -3 15 -7 0 -3 27 -3 60 0 33
3 60 3 60 0 0 -3 27 -3 60 0 33 3 60 3 60 0 0 -3 47 -5 105 -5 58 0 105 3 105
6 0 3 7 6 15 6 8 0 15 -3 15 -7 0 -3 27 -3 60 0 33 3 60 3 60 0 0 -3 74 -5
165 -5 91 0 165 3 165 6 0 3 7 6 15 6 8 0 15 -3 15 -7 0 -3 27 -3 60 0 33 3
60 3 60 0 0 -3 27 -3 60 0 33 3 60 3 60 0 0 -3 47 -5 105 -5 58 0 105 3 105 6
0 3 7 6 15 6 8 0 15 -3 15 -7 0 -3 27 -3 60 0 33 3 60 3 60 0 0 -3 27 -3 60 0
33 3 60 3 60 0 0 -3 39 -3 86 0 47 3 88 3 90 1 8 -8 34 -9 34 -2 0 4 7 8 15 8
8 0 15 -3 15 -7 0 -3 27 -3 60 0 33 3 60 3 60 0 0 -3 27 -3 60 0 33 3 60 3 60
0 0 -3 47 -5 105 -5 58 0 105 3 105 6 0 3 7 6 15 6 8 0 15 -3 15 -7 0 -3 27
-3 60 0 33 3 60 3 60 0 0 -3 27 -3 60 0 33 3 60 3 60 0 0 -3 46 -4 102 -3 57
1 103 3 103 3 0 1 8 3 18 5 9 2 17 0 17 -4 0 -4 27 -4 60 -1 33 3 60 3 60 0 0
-3 27 -3 60 0 33 3 60 3 60 0 0 -3 47 -5 105 -5 58 0 105 3 105 6 0 3 7 6 15
6 8 0 15 -3 15 -6 0 -7 112 -5 153 3 15 2 27 2 27 -2 0 -6 64 -7 80 -2 3 1 19
3 35 3 23 2 30 7 31 23 1 20 -1 20 -358 20 -198 -1 -365 2 -370 6 -6 3 -13 41
-14 84 -2 43 -6 92 -8 108 -7 43 -17 106 -22 136 -10 55 -12 65 -14 68 -3 2
-4 5 -14 47 -30 117 -123 325 -190 424 -20 29 -36 57 -36 62 0 5 -3 9 -8 9 -4
0 -14 11 -22 24 -30 48 -221 256 -235 256 -3 0 -13 8 -23 18 -39 36 -70 59
-151 110 -24 15 -49 32 -55 37 -36 30 -276 141 -276 127 0 -4 -4 -2 -8 4 -4 6
-27 16 -52 23 -25 6 -53 14 -62 16 -17 5 -46 12 -78 20 -8 2 -17 4 -20 5 -3 1
-8 2 -12 2 -3 -1 -37 5 -75 12 -39 7 -83 12 -99 11 -16 -1 -33 1 -39 4 -9 5
-194 9 -199 4z m199 -87 c50 -3 101 -8 115 -10 55 -8 106 -18 120 -23 8 -3 24
-7 35 -9 37 -5 148 -40 170 -53 6 -3 16 -6 23 -7 34 -6 306 -156 332 -184 3
-3 25 -21 50 -40 25 -19 71 -60 103 -91 31 -30 57 -53 57 -50 0 3 10 -8 23
-25 12 -18 52 -71 90 -119 37 -49 67 -94 67 -102 0 -7 4 -13 9 -13 8 0 114
-202 112 -214 0 -3 9 -27 20 -52 34 -80 70 -229 73 -301 0 -18 3 -33 6 -33 3
0 7 -28 9 -62 1 -35 4 -74 5 -88 6 -59 126 -55 -1516 -53 -826 0 -1508 2
-1514 2 -20 2 -3 220 27 341 6 25 13 54 15 65 11 43 13 50 14 53 2 1 3 5 4 10
6 26 32 95 54 142 30 64 28 59 37 88 4 12 11 22 16 22 5 0 9 6 9 14 0 7 9 25
21 40 11 14 18 26 15 26 -3 0 14 27 39 61 25 34 45 65 45 71 0 5 5 6 10 3 6
-3 10 1 10 9 0 15 169 191 241 251 52 44 182 127 269 173 63 33 286 119 313
120 4 0 31 5 60 11 88 17 119 21 207 27 46 3 86 7 88 9 2 2 9 2 15 0 7 -2 53
-6 102 -9z"/>
<path d="M2302 3749 c-26 -10 -37 -28 -37 -63 0 -18 -6 -30 -15 -32 -48 -9
-66 -15 -115 -38 -65 -30 -70 -33 -157 -119 -37 -37 -68 -74 -68 -82 0 -8 -4
-15 -8 -15 -9 0 -48 -100 -44 -112 1 -5 -2 -8 -7 -8 -6 0 -9 -8 -9 -17 1 -31
-13 -87 -23 -94 -5 -3 -20 -5 -32 -4 -28 2 -44 -14 -50 -53 -4 -22 1 -39 13
-54 16 -20 27 -22 108 -23 86 0 118 -8 97 -23 -6 -4 -27 -28 -48 -55 -31 -38
-43 -46 -63 -43 -18 4 -30 -3 -48 -27 -46 -60 -48 -80 -14 -118 18 -19 33 -33
35 -31 2 2 45 -25 96 -60 104 -72 118 -79 144 -72 30 9 88 114 62 114 -5 0 -9
9 -9 20 0 33 46 49 130 44 133 -7 155 -7 185 -1 17 4 44 9 60 13 44 9 138 55
156 76 9 10 22 18 28 18 7 0 9 5 6 10 -3 6 -2 10 4 10 5 0 28 17 51 39 35 33
45 48 49 82 1 3 34 4 74 3 92 -2 117 12 117 65 0 43 -15 60 -62 70 -20 4 -32
13 -34 26 -8 50 -11 64 -28 118 -19 59 -22 62 -44 48 -11 -6 -10 -19 6 -67 30
-90 33 -112 20 -120 -6 -4 -192 -7 -414 -7 -221 0 -408 -3 -415 -8 -11 -6 -11
-11 -2 -20 9 -9 119 -12 423 -13 225 -1 410 2 410 6 0 4 10 4 23 -1 12 -4 27
-6 34 -4 7 2 21 -1 32 -7 17 -8 19 -14 10 -28 -10 -16 -50 -17 -567 -16 -307
1 -564 2 -574 3 -16 1 -19 23 -4 38 4 4 39 8 77 9 104 1 126 39 26 43 -14 1
-17 7 -13 29 3 15 8 44 12 65 4 20 11 37 17 37 6 0 7 3 4 6 -9 9 53 124 66
124 6 0 8 2 5 5 -13 13 131 135 159 135 7 0 13 5 13 10 0 6 3 9 8 8 7 -1 19 3
67 21 11 5 30 7 43 5 12 -2 22 0 22 4 0 8 86 7 157 -1 68 -8 182 -74 255 -147
64 -66 88 -78 88 -46 0 14 -112 132 -145 154 -11 7 -28 15 -37 18 -10 4 -18
11 -18 16 0 6 -6 8 -14 5 -8 -3 -20 0 -26 8 -6 8 -18 11 -26 8 -8 -3 -14 0
-14 6 0 6 -3 10 -7 9 -5 -1 -22 2 -39 6 -29 6 -31 10 -25 34 6 21 3 31 -12 45
-11 9 -23 17 -26 18 -28 5 -82 4 -99 -2z m83 -38 c15 -1 16 -41 2 -42 -7 0
-22 -2 -34 -5 -13 -2 -23 0 -23 5 0 5 -8 11 -17 13 -15 3 -15 4 1 20 9 10 27
16 39 14 12 -3 27 -5 32 -5z m-252 -686 c10 -2 26 -6 35 -9 15 -5 30 -8 92
-20 8 -2 33 1 55 6 22 6 48 11 58 13 10 2 26 6 35 9 37 12 52 -23 20 -45 -44
-30 -61 -51 -48 -59 38 -24 192 17 273 72 36 25 64 37 75 33 16 -6 -10 -35
-114 -122 -33 -29 -139 -74 -184 -79 -65 -8 -221 -1 -240 11 -6 3 -10 2 -10
-2 0 -5 -12 -10 -26 -11 -14 -1 -40 -13 -57 -26 l-32 -24 -81 57 -81 57 41 52
c59 73 116 109 156 95 8 -2 23 -6 33 -8z m497 5 c0 -6 -59 -43 -72 -46 -5 -1
-9 -2 -10 -4 -2 -1 -10 -3 -18 -5 -8 -1 -21 -4 -29 -6 -19 -5 -21 54 -3 61 18
7 132 7 132 0z m-770 -165 c0 6 3 6 8 0 4 -6 36 -30 72 -54 36 -24 68 -49 72
-55 4 -6 8 -8 8 -4 0 4 8 1 18 -7 9 -8 25 -20 34 -27 17 -12 16 -15 -8 -45
l-25 -33 -61 43 c-33 23 -74 50 -90 60 -16 9 -39 26 -50 37 -12 11 -25 20 -30
20 -15 0 -8 27 13 54 17 21 24 25 30 14 5 -7 9 -8 9 -3z"/>
<path d="M1469 2536 c-1 -1 -3 -32 -5 -69 -2 -50 0 -67 9 -64 7 2 13 9 13 15
1 7 2 17 3 22 0 6 4 9 9 8 4 -1 17 1 30 6 17 6 21 13 17 33 -6 34 -19 47 -50
49 -14 0 -26 0 -26 0z m51 -48 c0 -17 -5 -27 -12 -25 -19 3 -26 17 -21 36 8
29 33 21 33 -11z"/>
<path d="M1872 2531 c-11 -7 -11 -9 2 -14 10 -4 16 -1 16 8 0 17 -1 17 -18 6z"/>
<path d="M2216 2521 c-9 -36 -1 -114 13 -119 10 -3 12 1 9 16 -6 20 13 48 24
37 3 -3 11 1 17 9 10 12 8 14 -13 12 -14 -2 -27 2 -30 9 -5 13 7 37 18 36 23
-3 36 0 31 8 -9 16 -64 10 -69 -8z"/>
<path d="M2569 2531 c-1 -6 -2 -17 -3 -23 -1 -7 -14 -18 -31 -23 -16 -6 -29
-16 -27 -23 3 -19 -12 -14 -26 8 -16 26 -50 26 -78 -1 l-22 -21 -7 21 c-7 24
-46 29 -63 9 -24 -30 -23 -54 3 -68 21 -11 29 -11 50 0 13 7 22 17 19 22 -3 4
-1 8 3 8 5 0 14 -9 21 -20 15 -25 46 -26 70 -2 17 17 19 17 36 -5 14 -19 21
-22 32 -12 11 9 14 9 14 -2 0 -8 6 -5 14 6 8 11 12 23 10 27 -3 5 0 8 7 8 7 0
8 4 2 13 -5 6 -8 27 -7 44 2 30 -14 59 -17 34z m-213 -99 c-8 -8 -22 -12 -30
-9 -13 5 -14 11 -4 32 11 24 12 24 30 8 16 -15 17 -18 4 -31z m114 10 c0 -10
-23 -22 -41 -22 -14 0 -11 48 3 52 14 5 38 -15 38 -30z m93 15 c8 -20 -9 -41
-26 -34 -12 5 -15 20 -8 45 3 8 30 0 34 -11z"/>
<path d="M2649 2521 c-5 -59 0 -114 11 -121 19 -12 73 7 92 32 12 17 14 25 5
30 -9 6 -9 8 0 8 8 0 8 6 0 25 -14 28 -29 36 -74 40 -25 2 -33 -1 -34 -14z
m80 -17 c10 -9 3 -63 -10 -76 -25 -28 -49 -10 -49 36 0 24 3 46 7 49 6 7 42 0
52 -9z"/>
<path d="M2867 2533 c-2 -5 -3 -23 -2 -40 1 -18 -2 -33 -7 -33 -4 0 -8 4 -8
10 0 16 -48 23 -62 9 -12 -13 -22 -76 -10 -65 2 3 11 -1 19 -9 12 -12 18 -13
36 -3 22 13 22 13 -5 16 -40 5 -42 27 -2 29 33 2 39 -4 35 -34 -1 -7 4 -13 12
-13 10 0 13 17 14 65 1 58 -8 89 -20 68z m-47 -63 c0 -5 -5 -10 -11 -10 -5 0
-7 5 -4 10 3 6 8 10 11 10 2 0 4 -4 4 -10z"/>
<path d="M2910 2531 c0 -6 5 -13 10 -16 6 -3 10 1 10 9 0 9 -4 16 -10 16 -5 0
-10 -4 -10 -9z"/>
<path d="M1560 2444 c0 -23 5 -46 10 -49 6 -4 10 5 10 19 0 39 0 40 16 57 13
15 12 17 -11 17 -23 0 -25 -4 -25 -44z"/>
<path d="M1624 2479 c-13 -21 -10 -54 6 -66 18 -15 60 -17 60 -3 0 6 -11 10
-25 10 -14 0 -25 6 -25 14 0 9 8 12 25 8 29 -5 47 24 24 39 -20 12 -57 11 -65
-2z m56 -11 c0 -4 -7 -8 -15 -8 -8 0 -15 4 -15 8 0 5 7 9 15 9 8 0 15 -4 15
-9z"/>
<path d="M1709 2466 c-2 -28 2 -60 8 -66 7 -7 22 22 17 34 -6 17 12 39 26 31
7 -4 10 -20 8 -37 -4 -22 -1 -28 11 -26 10 2 15 15 15 40 0 32 2 35 18 27 11
-6 18 -21 18 -40 0 -20 4 -29 13 -26 15 5 16 23 4 59 -8 25 -11 26 -73 25 -57
-1 -64 -3 -65 -21z"/>
<path d="M1866 2453 c3 -53 3 -53 14 -53 6 0 10 20 10 45 0 30 -4 45 -13 45
-8 0 -12 -13 -11 -37z"/>
<path d="M1919 2489 c-16 -56 2 -89 49 -89 28 0 29 2 28 45 -1 54 -22 61 -24
9 -1 -20 -3 -38 -5 -40 -8 -8 -26 15 -29 38 -3 24 -16 49 -19 37z"/>
<path d="M2019 2468 c-2 -29 2 -62 7 -67 8 -8 17 9 18 34 1 37 20 35 24 -2 2
-18 7 -33 13 -33 9 0 13 14 9 39 -1 13 17 31 33 31 4 0 7 -16 7 -35 0 -19 5
-35 10 -35 10 0 12 6 12 40 0 11 0 24 -1 29 -2 16 -39 23 -62 11 -15 -8 -19
-9 -15 -1 5 7 -4 11 -23 11 -25 0 -31 -4 -32 -22z"/>
<path d="M2910 2444 c0 -32 4 -44 13 -41 6 2 11 15 9 29 -2 15 2 29 7 33 6 3
11 -1 11 -9 0 -9 5 -16 11 -16 5 0 8 -4 5 -8 -2 -4 -1 -14 4 -22 8 -13 11 -13
23 0 18 21 37 67 30 74 -12 12 -23 6 -23 -13 0 -28 -17 -35 -25 -11 -3 11 -9
20 -13 21 -4 0 -17 2 -29 5 -21 4 -23 0 -23 -42z"/>
<path d="M3050 2470 c-6 -12 -8 -30 -5 -40 7 -21 44 -36 67 -27 13 5 13 5 -37
22 -16 5 -17 8 -5 15 8 5 18 6 22 3 5 -2 15 1 24 7 12 11 12 14 -3 26 -26 19
-51 17 -63 -6z"/>
<path d="M3139 2486 c-1 0 -3 -20 -4 -43 -4 -46 7 -56 25 -23 7 13 7 20 1 20
-6 0 -8 7 -5 15 4 8 10 12 15 9 5 -3 9 0 9 6 0 7 5 10 11 8 17 -6 40 -81 29
-92 -6 -6 -10 -16 -10 -23 0 -17 40 19 44 38 1 8 9 29 18 46 9 18 12 35 7 38
-5 4 -14 -5 -21 -19 -6 -14 -15 -26 -20 -26 -7 0 -12 22 -9 42 1 6 -85 10 -90
4z"/>
<path d="M1707 2248 c-9 -5 -12 -93 -13 -365 -1 -197 0 -365 2 -373 3 -11 15
-14 49 -12 l45 4 0 373 0 373 -35 4 c-19 2 -41 1 -48 -4z"/>
<path d="M4479 2243 c-4 -30 -1 -154 4 -166 3 -7 1 -20 -3 -27 -5 -8 -4 -22 1
-32 6 -11 6 -18 0 -18 -5 0 -7 -10 -3 -22 l5 -23 -24 20 c-13 11 -26 23 -29
26 -3 3 -23 10 -46 16 -35 9 -56 9 -131 1 -30 -3 -108 -76 -132 -123 -21 -42
-25 -64 -25 -135 0 -47 3 -95 6 -107 19 -66 69 -126 127 -151 38 -16 119 -23
127 -11 2 4 13 6 24 4 11 -2 20 0 20 4 0 5 13 14 30 21 16 7 32 21 35 31 11
34 31 22 27 -16 l-4 -35 44 0 44 0 0 373 -1 372 -47 3 c-27 2 -48 -1 -49 -5z
m-31 -344 c14 -18 25 -46 27 -74 2 -25 6 -49 10 -54 3 -5 1 -12 -4 -16 -6 -3
-7 -15 -1 -29 5 -15 5 -27 -3 -35 -6 -6 -8 -11 -4 -11 16 0 -36 -82 -58 -92
-14 -6 -25 -14 -25 -17 0 -11 -65 -11 -100 1 -31 10 -48 24 -77 63 -14 19 -31
102 -27 131 13 88 29 123 73 159 14 11 36 21 50 23 14 2 27 5 29 7 10 10 90
-30 110 -56z"/>
<path d="M179 2160 c0 -71 0 -627 1 -648 0 -10 44 -12 202 -10 l201 3 2 25 c4
49 2 50 -156 50 -112 0 -149 3 -150 13 -1 6 -3 145 -4 307 -1 162 -3 302 -4
310 -1 11 -13 15 -46 15 l-45 0 -1 -65z"/>
<path d="M2515 2220 l-40 -5 0 -357 -1 -358 49 0 c47 0 49 1 45 25 -3 14 -1
25 4 25 5 0 6 5 2 11 -9 16 -11 109 -1 109 5 0 5 5 1 11 -9 14 -11 109 -2 109
3 0 4 9 1 20 -5 18 0 19 127 18 114 -1 133 1 142 15 6 11 5 17 -2 17 -7 0 -8
6 -1 19 14 25 -1 27 -151 26 -64 0 -116 2 -116 5 0 3 0 7 -1 10 -7 19 -4 110
4 110 5 0 5 4 -1 10 -5 5 -8 29 -6 54 l4 44 64 4 c36 2 69 -1 75 -6 6 -6 9 -6
9 0 0 10 92 10 109 0 6 -4 11 -2 11 4 0 6 4 9 9 6 13 -9 20 17 13 50 l-7 29
-150 0 c-82 0 -168 -2 -190 -5z"/>
<path d="M805 2022 c-11 -2 -27 -6 -35 -9 -8 -3 -21 -5 -27 -4 -7 1 -13 -3
-13 -9 0 -5 -7 -10 -15 -10 -9 0 -15 -9 -15 -22 0 -44 11 -48 73 -27 52 18 69
19 117 7 15 -3 59 -44 61 -56 7 -47 4 -61 -10 -60 -21 0 -100 -10 -128 -16
-28 -6 -84 -34 -107 -55 -64 -57 -67 -171 -5 -232 63 -61 155 -59 247 7 21 16
22 16 22 -10 0 -24 3 -26 43 -26 l43 0 -3 143 c-5 240 -8 263 -38 308 -38 58
-121 86 -210 71z m149 -270 c8 -29 5 -112 -5 -112 -5 0 -8 -3 -7 -7 10 -35
-74 -86 -125 -76 -37 7 -69 54 -65 95 6 60 43 93 121 107 68 11 76 11 81 -7z"/>
<path d="M2108 2025 c-2 -2 -16 -6 -32 -9 -28 -5 -90 -47 -113 -76 -17 -21
-42 -74 -46 -96 -1 -11 -5 -23 -8 -29 -6 -11 -4 -105 4 -146 15 -78 98 -169
154 -169 13 0 23 -4 23 -9 0 -11 136 -6 186 8 40 11 60 31 46 46 -7 6 -8 10
-11 36 -1 8 -5 8 -13 1 -29 -23 -168 -33 -191 -13 -7 5 -16 10 -22 12 -21 4
-55 32 -55 44 0 7 -4 15 -9 17 -6 2 -11 15 -13 30 -2 15 -7 30 -10 34 -4 3 -4
12 -1 20 4 10 41 13 176 13 113 1 173 4 177 12 10 14 4 86 -9 128 -15 50 -52
99 -83 114 -16 6 -28 15 -28 18 0 6 -3 7 -71 13 -26 3 -49 3 -51 1z m64 -74
c10 -1 32 -13 48 -28 24 -22 32 -38 35 -73 l3 -45 -34 -1 c-19 0 -34 3 -34 8
0 5 -4 7 -9 4 -14 -9 -111 -14 -106 -5 3 4 -8 4 -23 -1 -44 -12 -57 0 -43 43
20 60 73 106 119 101 15 -1 35 -2 44 -3z"/>
<path d="M3114 2019 c-2 -4 -17 -9 -33 -12 -25 -5 -121 -77 -122 -92 0 -2 -7
-21 -15 -40 -14 -34 -29 -108 -26 -130 1 -5 3 -21 5 -35 7 -52 19 -90 28 -90
6 0 8 -4 4 -9 -11 -19 84 -99 135 -114 174 -51 328 64 334 250 2 38 0 73 -3
78 -3 6 -6 12 -6 15 0 12 -40 95 -50 105 -22 23 -85 67 -85 60 0 -4 -6 -2 -13
4 -8 6 -17 8 -20 4 -4 -3 -7 -2 -7 3 0 10 -119 13 -126 3z m133 -87 c26 -14
62 -62 66 -88 1 -11 5 -23 9 -29 10 -16 5 -125 -6 -125 -5 0 -7 -3 -3 -6 9 -9
-27 -76 -52 -96 -24 -20 -101 -41 -101 -27 0 4 -7 6 -15 3 -21 -9 -79 33 -98
70 -53 100 -37 219 38 284 20 18 40 30 45 27 5 -3 11 -1 14 4 7 10 72 -1 103
-17z"/>
<path d="M3672 2010 c-71 -27 -139 -94 -145 -142 -1 -13 -6 -26 -10 -29 -10
-7 -12 -122 -4 -161 32 -154 209 -237 353 -167 47 22 94 62 94 79 0 6 4 10 8
10 15 0 35 82 38 149 6 160 -87 268 -236 275 -33 1 -73 -4 -98 -14z m158 -77
c31 -22 63 -61 66 -82 2 -9 7 -32 11 -51 5 -19 8 -51 6 -70 -3 -40 -32 -110
-45 -110 -4 0 -8 -6 -8 -13 0 -23 -63 -48 -113 -46 -88 5 -149 91 -143 205 4
76 29 128 75 160 43 29 114 33 151 7z"/>
<path d="M1136 2010 c-12 -4 -10 -16 11 -70 14 -36 35 -85 46 -110 11 -25 21
-49 22 -55 1 -5 6 -21 12 -35 6 -14 21 -50 33 -80 12 -30 27 -66 33 -80 6 -14
11 -28 12 -32 2 -5 4 -10 5 -13 7 -15 5 -32 -7 -52 -7 -13 -10 -23 -7 -23 4 0
-3 -9 -16 -20 -13 -11 -20 -20 -16 -20 12 0 -47 -46 -81 -64 -37 -19 -36 -16
-24 -49 7 -18 6 -27 -2 -29 -7 -3 -266 -4 -575 -4 -514 1 -565 0 -573 -15 -5
-11 -4 -20 4 -26 7 -5 268 -9 606 -8 l595 1 45 -44 c60 -57 214 -173 271 -203
25 -13 47 -27 48 -31 2 -5 10 -8 17 -8 8 0 21 -8 31 -18 10 -9 20 -16 23 -15
5 1 21 -5 101 -40 14 -5 27 -11 30 -12 3 -1 12 -4 20 -8 31 -12 186 -56 220
-62 19 -3 52 -10 74 -15 21 -5 47 -7 57 -5 11 2 19 0 19 -5 0 -10 373 -6 410
4 14 4 41 9 60 11 19 2 35 4 35 5 0 1 11 4 25 5 93 12 459 162 482 198 4 7 8
8 8 2 0 -7 3 -7 8 0 4 6 27 23 51 39 25 16 50 33 55 37 6 5 31 25 56 45 25 20
67 57 94 83 l50 46 593 1 c442 0 596 3 605 12 9 9 6 12 -12 13 -176 4 -1854
-1 -1858 -6 -17 -16 35 -20 275 -19 142 1 261 -1 266 -3 7 -4 -16 -33 -27 -33
-3 0 -18 -12 -33 -26 -77 -72 -377 -244 -427 -244 -9 0 -16 -4 -16 -8 0 -5 -6
-9 -12 -10 -7 0 -38 -8 -68 -17 -30 -9 -64 -18 -75 -20 -11 -3 -33 -8 -50 -11
-16 -4 -39 -8 -50 -10 -11 -2 -42 -6 -70 -11 -27 -4 -123 -7 -212 -7 -124 1
-166 4 -179 15 -14 11 -16 11 -10 0 6 -10 4 -12 -10 -7 -27 8 -177 39 -191 39
-7 0 -13 5 -13 10 0 6 -3 7 -7 4 -3 -4 -12 -2 -20 4 -7 6 -13 8 -13 4 0 -4 -7
-2 -15 5 -9 7 -18 10 -22 7 -3 -4 -15 -1 -27 5 -11 7 -24 11 -28 10 -5 -1 -8
3 -8 8 0 5 -3 9 -7 8 -11 -2 -39 10 -108 45 -33 16 -70 35 -82 41 -13 6 -23
14 -23 19 0 4 -6 7 -13 7 -19 0 -227 158 -227 173 0 2 121 4 270 4 249 -1 294
2 277 19 -3 4 -158 6 -344 6 -296 1 -334 2 -305 14 17 8 32 19 32 24 0 6 5 10
11 10 19 0 71 67 113 144 21 39 39 76 41 81 9 42 19 65 27 65 5 0 8 6 6 13 -1
6 6 27 15 45 10 17 15 32 12 32 -2 0 6 25 20 55 13 31 24 56 24 58 0 1 5 16
11 32 7 17 13 35 14 40 4 15 26 67 41 98 13 26 12 29 -6 35 -11 5 -35 6 -53 4
-33 -4 -34 -4 -77 -135 -23 -73 -46 -136 -50 -142 -4 -5 -8 -14 -9 -20 -4 -34
-24 -96 -31 -101 -5 -3 -8 -2 -7 3 2 8 -36 128 -57 178 -7 17 -28 71 -46 122
l-33 91 -38 4 c-20 2 -44 1 -52 -2z"/>
<path d="M2025 1300 c-13 -21 -14 -54 -2 -69 6 -8 7 -12 2 -9 -7 4 -11 -3 -10
-17 0 -29 2 -31 43 -38 24 -5 32 -3 32 7 0 8 -8 13 -17 12 -18 -3 -33 10 -33
30 0 6 9 11 20 10 11 0 20 4 20 9 0 6 -6 10 -13 10 -6 0 -18 4 -25 9 -19 12 4
36 36 36 14 0 23 3 19 6 -11 11 -66 14 -72 4z"/>
<path d="M2381 1301 c-11 -7 -9 -10 10 -13 35 -5 35 -37 -1 -78 -28 -32 -29
-35 -10 -38 11 -2 32 -1 47 1 27 4 28 4 5 12 -15 5 -21 13 -18 22 3 8 6 17 6
19 0 3 5 2 10 -1 6 -4 10 -3 9 2 -1 4 0 10 1 13 9 24 5 42 -13 55 -25 17 -27
18 -46 6z"/>
<path d="M2479 1294 c-6 -7 -12 -19 -13 -26 -1 -7 -4 -17 -7 -23 -9 -14 19
-75 34 -75 40 1 63 61 40 107 -15 31 -36 38 -54 17z m37 -73 c-2 -14 -5 -28
-5 -30 -1 -2 -7 2 -15 8 -16 14 -17 72 -1 83 13 10 26 -28 21 -61z"/>
<path d="M2588 1302 c-18 -3 -26 -32 -10 -32 5 0 9 -21 9 -46 1 -43 7 -63 18
-52 6 5 9 127 4 132 -2 1 -12 1 -21 -2z"/>
<path d="M2669 1296 c-10 -7 -14 -22 -12 -43 2 -17 -1 -34 -6 -38 -19 -11 12
-45 40 -45 26 0 46 23 39 45 -1 6 -2 24 -2 42 2 43 -28 62 -59 39z m41 -20 c0
-20 -13 -27 -30 -15 -13 8 -13 10 0 19 21 14 30 12 30 -4z m-10 -86 c-21 -13
-35 17 -19 37 12 13 14 13 23 -7 7 -16 6 -24 -4 -30z"/>
<path d="M2185 1264 c-8 -13 -11 -24 -6 -24 5 0 11 -15 13 -32 3 -29 7 -33 36
-35 22 -1 32 3 32 13 0 12 -4 12 -20 4 -11 -6 -20 -7 -21 -3 0 4 -2 17 -4 27
-2 11 2 24 9 30 11 9 10 14 -5 28 -17 16 -19 15 -34 -8z"/>
<path d="M2125 1256 c-13 -15 -19 -50 -7 -42 6 3 12 -1 15 -8 4 -9 -1 -16 -11
-19 -15 -3 -15 -5 2 -12 27 -12 54 24 31 41 -16 12 -21 39 -5 29 6 -3 10 -2
10 3 0 15 -24 21 -35 8z"/>
</g>
</svg>
